<?xml version="1.0" standalone="no"?>
<!DOCTYPE svg PUBLIC "-//W3C//DTD SVG 20010904//EN"
 "http://www.w3.org/TR/2001/REC-SVG-20010904/DTD/svg10.dtd">
<svg version="1.0" xmlns="http://www.w3.org/2000/svg"
 width="193.000000pt" height="185.000000pt" viewBox="0 0 193.000000 185.000000"
 preserveAspectRatio="xMidYMid meet">

<g transform="translate(0.000000,185.000000) scale(0.100000,-0.100000)"
fill="#000000" stroke="none">
<path d="M760 1790 c-162 -40 -302 -116 -414 -226 -293 -286 -359 -701 -170
-1062 155 -297 453 -477 784 -475 254 1 452 85 635 268 112 112 169 201 216
338 126 364 -11 788 -327 1013 -83 59 -210 117 -313 143 -112 28 -301 28 -411
1z m406 -156 c136 -39 215 -86 319 -189 153 -152 219 -310 219 -530 0 -141
-15 -209 -77 -335 -34 -70 -59 -102 -137 -181 -82 -83 -108 -103 -190 -143
-52 -25 -124 -53 -160 -63 -90 -22 -264 -22 -355 1 -258 66 -454 254 -535 511
-34 107 -39 276 -11 385 67 270 262 472 526 546 119 34 282 33 401 -2z"/>
<path d="M762 1475 c-30 -21 -49 -96 -62 -239 -6 -66 -12 -121 -13 -122 -1 -1
-16 -5 -33 -8 -29 -6 -33 -3 -67 49 -42 62 -93 103 -163 130 -53 20 -77 13
-82 -24 -5 -32 11 -46 80 -71 45 -16 74 -36 109 -73 l49 -50 -32 -35 c-54 -63
-73 -117 -73 -212 0 -72 4 -93 28 -141 41 -84 118 -128 227 -129 33 0 37 -4
69 -66 27 -53 45 -73 95 -107 79 -54 145 -76 227 -77 55 0 72 4 111 29 76 49
108 144 74 226 -8 19 -13 35 -11 35 2 0 33 -7 69 -15 94 -22 196 -22 228 -1
58 38 68 154 19 210 -39 44 -129 62 -194 37 -32 -13 -33 -7 -7 50 24 54 26
139 3 186 -22 47 -71 69 -119 53 -75 -25 -118 -120 -149 -332 l-6 -37 -42 20
-43 21 10 59 c12 74 -3 139 -43 189 -42 52 -79 69 -165 77 -52 4 -80 11 -83
20 -9 24 27 195 54 255 24 55 25 59 9 83 -19 29 -42 32 -74 10z m602 -427 c25
-36 20 -105 -13 -173 -28 -59 -124 -165 -137 -152 -11 10 16 197 37 256 10 30
26 62 35 72 23 26 59 24 78 -3z m-494 -148 c20 -11 35 -60 26 -88 -10 -31 -49
-46 -77 -32 -13 7 -27 18 -31 24 -14 21 -8 66 12 86 22 22 42 25 70 10z m-251
-106 c26 -33 27 -58 1 -84 -33 -33 -79 -2 -80 56 0 57 44 72 79 28z m909 -50
c25 -17 31 -71 10 -92 -26 -26 -288 -10 -288 17 0 11 96 62 144 77 56 17 107
17 134 -2z m-344 -103 l49 -49 -22 -44 c-29 -62 -127 -177 -155 -184 -25 -6
-117 28 -136 51 -8 10 -1 21 33 44 58 42 113 109 143 176 14 30 29 55 33 55 4
0 29 -22 55 -49z"/>
<path d="M812 868 c-25 -25 -6 -68 30 -68 23 0 38 30 27 58 -9 24 -38 29 -57
10z"/>
<path d="M564 776 c-10 -26 1 -51 24 -54 27 -4 38 19 22 47 -12 24 -38 28 -46
7z"/>
</g>
</svg>
