<?xml version="1.0" standalone="no"?>
<!DOCTYPE svg PUBLIC "-//W3C//DTD SVG 20010904//EN"
 "http://www.w3.org/TR/2001/REC-SVG-20010904/DTD/svg10.dtd">
<svg version="1.0" xmlns="http://www.w3.org/2000/svg"
 width="600.000000pt" height="600.000000pt" viewBox="0 0 600.000000 600.000000"
 preserveAspectRatio="xMidYMid meet">

<g transform="translate(0.000000,600.000000) scale(0.100000,-0.100000)"
fill="#000000" stroke="none">
<path d="M3427 4672 c1 -3 -9 -13 -22 -24 -14 -11 -23 -24 -20 -29 4 -5 2 -9
-4 -9 -13 0 -154 -180 -154 -196 0 -7 -4 -11 -8 -8 -11 6 -30 -31 -21 -41 4
-5 2 -5 -5 -1 -13 7 -45 -32 -37 -46 3 -5 1 -7 -4 -6 -22 6 -316 -421 -384
-557 -146 -291 -139 -606 18 -841 149 -225 399 -353 666 -342 112 5 273 42
261 61 -3 6 -1 7 5 3 15 -9 138 55 183 95 19 17 25 25 14 18 -18 -13 -19 -12
-7 3 8 9 19 15 26 12 16 -6 97 82 144 155 84 132 122 264 123 428 0 190 -39
302 -181 513 -116 173 -136 200 -145 192 -5 -4 -5 -2 -2 4 7 13 -91 150 -105
146 -5 -1 -7 1 -4 6 7 12 -43 84 -54 77 -5 -3 -12 0 -16 6 -4 8 -3 9 4 5 21
-13 12 8 -16 39 -15 17 -23 24 -17 15 7 -12 7 -13 -5 -2 -8 7 -15 19 -15 27 0
21 -168 244 -179 238 -5 -4 -6 -1 -2 5 3 6 -4 21 -16 34 -13 13 -22 22 -21 20z
m-411 -950 c1 -106 6 -155 23 -217 24 -91 69 -171 94 -169 9 1 15 -2 12 -6 -5
-9 90 -65 109 -65 6 0 11 -7 11 -15 0 -8 9 -33 19 -55 23 -50 25 -149 3 -191
-31 -59 -103 -104 -167 -104 -107 0 -206 114 -251 288 -24 96 -24 195 1 300
11 46 17 89 14 94 -4 6 -3 8 3 5 5 -3 18 17 28 46 15 43 95 227 99 227 1 0 2
-62 2 -138z"/>
<path d="M2142 2699 c-73 -12 -214 -68 -206 -81 4 -7 2 -8 -4 -4 -18 11 -122
-63 -115 -82 4 -13 3 -14 -5 -4 -7 11 -17 7 -48 -20 -64 -55 -94 -89 -87 -101
3 -5 2 -7 -4 -4 -13 8 -56 -37 -46 -48 5 -4 3 -5 -4 -2 -12 7 -76 -65 -68 -77
3 -3 2 -4 -2 -1 -10 8 -33 -16 -26 -29 3 -6 3 -8 -2 -4 -4 4 -35 -12 -69 -36
-33 -24 -80 -53 -104 -65 -26 -13 -40 -26 -36 -33 4 -7 3 -8 -5 -4 -14 9 -101
-31 -101 -47 0 -14 142 -730 146 -735 5 -7 54 30 50 37 -3 4 0 13 6 21 8 12 9
12 4 -2 -3 -10 -4 -18 -1 -18 16 0 163 105 158 113 -3 6 -1 7 6 3 6 -4 25 2
41 14 37 27 213 100 305 128 175 52 279 53 436 3 53 -17 105 -29 115 -25 13 4
15 3 7 -3 -17 -12 236 -106 262 -98 14 5 16 4 7 -2 -9 -7 14 -18 75 -36 299
-89 454 -107 604 -68 90 24 219 75 359 143 58 28 125 59 150 70 35 15 41 21
30 30 -12 8 -12 9 3 4 24 -8 140 51 131 66 -4 7 -3 8 5 4 35 -22 516 332 495
365 -3 5 -2 9 3 8 23 -4 35 2 29 17 -3 8 -2 13 2 10 13 -8 77 63 116 128 79
132 22 225 -109 180 -64 -21 -147 -73 -138 -86 3 -7 1 -8 -5 -4 -7 4 -12 2
-12 -3 0 -6 -7 -11 -15 -11 -17 0 -20 16 -5 25 6 4 7 11 4 17 -4 7 -2 8 4 4
14 -8 27 54 18 90 -5 18 -12 24 -22 20 -8 -3 -13 -2 -10 3 3 5 -7 14 -23 21
-47 19 -149 -17 -289 -102 -72 -44 -77 -45 -62 -19 14 27 13 54 -2 45 -7 -4
-8 -3 -4 5 4 6 3 18 -4 26 -22 27 -65 27 -146 -1 -115 -40 -258 -101 -248
-106 5 -3 4 -3 -3 -2 -7 2 -49 -14 -95 -36 -78 -36 -81 -39 -53 -45 157 -35
225 -61 288 -109 25 -19 48 -33 51 -30 3 2 4 1 2 -2 -3 -3 4 -23 15 -42 23
-44 24 -64 4 -103 -9 -16 -13 -35 -9 -41 4 -6 3 -8 -3 -5 -5 3 -25 -10 -44
-29 -133 -138 -458 -179 -785 -100 -119 29 -191 59 -271 114 -59 40 -143 123
-143 142 0 25 69 5 265 -78 182 -77 236 -87 455 -86 172 0 190 2 255 25 41 15
69 31 67 38 -1 7 2 10 8 6 14 -9 52 14 44 27 -4 6 -3 8 3 5 6 -4 16 0 23 8 15
18 9 61 -8 57 -8 -1 -11 2 -7 7 9 16 -20 26 -185 65 -183 44 -267 72 -357 120
-36 19 -71 32 -77 29 -6 -3 -8 -3 -4 2 10 10 -180 137 -193 129 -5 -3 -8 -1
-7 4 4 15 -111 94 -124 86 -6 -4 -8 -2 -5 4 9 13 -192 134 -211 127 -7 -2 -11
-1 -8 4 7 11 -49 34 -147 61 -76 21 -189 25 -285 9z m2528 -559 c0 -5 -5 -10
-11 -10 -5 0 -7 5 -4 10 3 6 8 10 11 10 2 0 4 -4 4 -10z"/>
</g>
</svg>
