<?xml version="1.0" standalone="no"?>
<!DOCTYPE svg PUBLIC "-//W3C//DTD SVG 20010904//EN"
 "http://www.w3.org/TR/2001/REC-SVG-20010904/DTD/svg10.dtd">
<svg version="1.0" xmlns="http://www.w3.org/2000/svg"
 width="417.000000pt" height="409.000000pt" viewBox="0 0 417.000000 409.000000"
 preserveAspectRatio="xMidYMid meet">

<g transform="translate(0.000000,409.000000) scale(0.100000,-0.100000)"
fill="#000000" stroke="none">
<path d="M2010 3403 c-243 -25 -515 -80 -537 -110 -7 -8 -18 -13 -26 -10 -21
8 -79 -30 -75 -50 2 -9 18 -26 37 -37 33 -19 35 -19 45 -2 54 90 75 106 192
137 113 31 463 39 597 14 51 -9 106 -22 122 -28 17 -7 33 -11 36 -10 4 1 19
-9 35 -24 29 -27 34 -25 63 24 4 7 26 14 48 15 45 1 49 18 5 18 -18 0 -23 3
-14 9 20 13 -61 39 -158 51 -79 9 -291 11 -370 3z m-600 -158 c-7 -9 -15 -13
-19 -10 -3 3 1 10 9 15 21 14 24 12 10 -5z"/>
<path d="M954 3232 c4 -3 45 -25 92 -47 46 -22 76 -33 67 -24 -17 16 -174 86
-159 71z"/>
<path d="M2480 3227 c0 -24 22 -36 50 -25 20 7 22 11 10 17 -35 19 -60 22 -60
8z"/>
<path d="M1420 3090 c0 -5 5 -10 11 -10 5 0 7 5 4 10 -3 6 -8 10 -11 10 -2 0
-4 -4 -4 -10z"/>
<path d="M1377 2963 c-10 -10 -8 -51 2 -58 5 -3 12 -1 16 5 3 5 17 10 31 10
27 0 33 17 8 27 -13 5 -13 7 -2 14 9 6 3 9 -18 9 -17 0 -34 -3 -37 -7z"/>
<path d="M2673 2920 c11 -40 30 -50 97 -50 47 0 42 13 -20 46 -91 48 -88 48
-77 4z"/>
<path d="M2471 2896 c6 -7 351 -58 355 -53 5 5 -11 7 -210 38 -134 20 -152 22
-145 15z"/>
<path d="M2868 2833 c7 -3 16 -2 19 1 4 3 -2 6 -13 5 -11 0 -14 -3 -6 -6z"/>
<path d="M2938 2823 c6 -2 18 -2 25 0 6 3 1 5 -13 5 -14 0 -19 -2 -12 -5z"/>
<path d="M2425 2809 c-3 -4 9 -10 27 -13 18 -4 56 -10 83 -16 45 -8 44 -8 -15
-2 -111 11 -142 8 -158 -16 -8 -12 -21 -22 -29 -22 -8 0 -11 -5 -7 -12 5 -8 2
-9 -11 -5 -9 4 -23 3 -30 -3 -9 -8 -15 -8 -20 0 -3 5 -11 10 -16 10 -6 0 -8
-4 -5 -9 3 -4 -6 -18 -19 -31 -13 -13 -22 -27 -18 -33 4 -6 -2 -8 -15 -5 -12
4 -25 1 -29 -4 -3 -6 -1 -8 5 -4 6 3 13 2 17 -4 3 -5 -1 -10 -10 -10 -9 0 -13
-5 -10 -10 3 -6 -5 -14 -19 -20 -14 -5 -26 -13 -26 -18 0 -4 18 -25 40 -47 62
-61 88 -139 191 -575 34 -146 45 -174 79 -205 22 -19 22 -19 36 0 8 10 14 30
14 44 0 21 -41 171 -85 309 -17 51 -15 51 80 17 74 -26 130 -31 155 -14 11 8
8 9 -15 5 -33 -7 -109 16 -98 28 5 5 -3 5 -16 1 -16 -5 -21 -4 -17 4 4 6 4 10
-1 9 -11 -3 -52 20 -76 43 -11 10 -25 15 -31 12 -6 -3 -8 -3 -4 2 4 4 4 13 -1
19 -18 21 -91 229 -91 258 0 16 -7 42 -15 58 -12 23 -12 30 -3 30 7 0 155 -25
328 -55 173 -30 333 -56 355 -57 l40 -3 -3 -60 c-2 -33 -6 -62 -8 -64 -2 -3
-46 7 -97 22 -95 27 -418 101 -495 113 l-44 7 24 -25 c13 -14 34 -26 48 -26
21 0 162 -26 197 -37 8 -3 8 -16 -3 -51 -15 -52 -12 -75 13 -96 14 -11 15 -10
9 10 -4 13 -2 35 5 51 18 41 68 54 153 42 75 -11 198 -49 208 -64 3 -6 5 5 3
24 -2 19 1 55 5 79 15 76 7 87 -63 94 -55 7 -268 45 -610 110 -65 12 -118 26
-119 31 0 6 21 21 47 36 26 14 65 42 86 62 21 21 46 37 55 37 9 0 158 -23 330
-50 173 -28 319 -48 324 -45 6 4 8 11 5 16 -4 5 -2 9 2 9 5 0 14 12 20 28 6
15 18 44 27 65 l16 37 -27 -1 c-18 -1 -22 -3 -10 -6 10 -3 17 -8 15 -12 -35
-79 -44 -91 -63 -86 -11 3 -119 21 -240 41 -121 19 -253 41 -293 49 -40 7 -75
9 -77 4z m275 -54 c41 -7 62 -13 45 -13 -16 -1 -59 5 -95 12 -84 18 -47 18 50
1z m123 -22 c-7 -2 -21 -2 -30 0 -10 3 -4 5 12 5 17 0 24 -2 18 -5z m122 -18
c66 -17 37 -17 -45 0 -36 7 -51 13 -35 13 17 0 53 -6 80 -13z m-665 -21 c0 -2
-9 -4 -21 -4 -11 0 -18 4 -14 10 5 8 35 3 35 -6z"/>
<path d="M1375 2762 c10 -11 148 -42 186 -42 39 0 15 9 -62 24 -41 8 -87 17
-104 21 -21 5 -27 4 -20 -3z"/>
<path d="M1605 2753 c-17 -13 -11 -54 10 -70 67 -50 118 -66 220 -67 91 -1
103 1 134 23 19 14 29 27 23 29 -7 2 -12 9 -12 16 0 6 -24 24 -54 38 -46 23
-71 27 -182 33 -71 3 -134 3 -139 -2z"/>
<path d="M3495 2741 c-23 -10 -53 -32 -68 -50 -31 -37 -83 -142 -92 -186 -5
-26 -3 -25 17 12 17 34 27 42 46 40 18 -1 31 7 46 28 36 52 114 124 141 131
38 9 59 1 201 -81 72 -41 138 -75 145 -75 8 1 1 8 -16 17 -16 8 -68 38 -114
66 -181 108 -242 128 -306 98z"/>
<path d="M1277 2682 c-41 -63 -149 -170 -181 -178 -42 -10 -103 13 -142 54
-19 20 -34 32 -34 26 0 -12 44 -55 80 -77 14 -9 53 -21 88 -27 90 -16 117 -4
200 86 79 85 78 85 217 55 63 -14 100 -17 125 -11 19 4 31 8 27 9 -5 1 -61 12
-125 25 -64 13 -140 27 -169 31 -43 6 -52 10 -55 28 -3 19 -7 16 -31 -21z m80
-28 c-3 -3 -12 -4 -19 -1 -8 3 -5 6 6 6 11 1 17 -2 13 -5z"/>
<path d="M1625 2364 c-59 -13 -111 -28 -122 -36 -7 -6 -27 -7 -45 -3 -25 5
-29 4 -18 -4 12 -8 8 -11 -16 -11 -34 0 -51 -15 -51 -41 0 -15 4 -15 31 -4 17
7 74 24 126 38 162 43 147 43 170 -6 l20 -43 51 48 c28 26 48 52 44 58 -6 10
-147 12 -190 4z"/>
<path d="M3016 2210 c41 -160 215 -240 494 -227 114 5 219 30 227 54 7 20 -62
20 -127 1 -100 -30 -302 -30 -395 -1 -87 27 -149 78 -182 148 -13 27 -20 39
-17 25z"/>
<path d="M353 1798 c-12 -35 -73 -211 -137 -393 -64 -181 -116 -330 -116 -331
0 -1 75 -67 167 -145 92 -79 291 -251 442 -381 314 -270 266 -248 465 -220
l118 17 40 100 c22 55 44 105 48 110 5 6 24 53 43 105 19 52 71 187 116 299
55 137 79 207 72 214 -5 5 -25 19 -44 31 -19 12 -51 32 -73 46 -38 25 -98 51
-121 52 -6 1 -10 9 -8 19 3 13 -10 27 -40 46 -30 19 -43 33 -39 43 3 8 9 35
14 60 l9 45 -75 73 c-41 39 -80 72 -87 72 -14 0 -50 -31 -64 -53 -12 -21 -72
-30 -79 -12 -4 8 -10 12 -15 9 -5 -3 -9 -1 -9 4 0 5 -7 9 -15 9 -20 0 -9 -10
40 -36 42 -22 85 -28 85 -11 0 12 27 2 63 -22 32 -23 36 -65 9 -118 -14 -30
-23 -36 -59 -41 -23 -3 -40 -2 -38 1 2 4 -14 20 -37 36 -22 16 -56 43 -75 59
-34 30 -34 30 -23 80 l11 49 -40 38 c-23 20 -41 35 -41 32 0 -3 -6 1 -14 8 -7
7 -12 20 -11 28 2 8 4 21 4 29 1 7 7 11 14 8 9 -3 22 11 36 40 12 25 20 47 18
49 -2 3 -32 5 -66 7 -59 2 -64 0 -86 -27 -24 -30 -51 -41 -61 -25 -3 5 -15 9
-28 9 -12 0 -26 3 -30 7 -4 5 -31 13 -59 20 -45 10 -54 10 -64 -4 -11 -14 -13
-14 -14 -2 0 8 -4 6 -9 -6 -5 -11 -9 -14 -9 -7 -1 6 -9 12 -18 12 -15 0 -16 2
-3 10 11 7 8 9 -15 9 -16 -1 -39 2 -50 5 -18 6 -23 -1 -42 -56z"/>
<path d="M1738 1383 c7 -11 33 -41 58 -65 112 -104 140 -137 148 -173 12 -52
28 -85 42 -85 8 0 14 -9 14 -20 0 -13 7 -20 20 -20 13 0 20 -7 20 -20 0 -11 5
-20 10 -20 6 0 10 5 10 10 0 6 9 10 20 10 13 0 20 7 20 20 0 13 7 20 20 20 15
0 20 7 20 25 0 26 24 35 33 13 3 -7 6 -8 6 -2 2 22 -26 43 -99 74 -106 46
-181 89 -208 119 -13 14 -29 26 -35 26 -7 1 -11 7 -9 14 1 7 -2 10 -7 7 -5 -3
-28 15 -51 41 -24 27 -38 38 -32 26z"/>
<path d="M1399 1311 c13 -12 28 -21 34 -21 12 0 11 0 -28 24 l-30 17 24 -20z"/>
<path d="M1914 994 c-2 -19 2 -24 13 -20 8 3 19 6 24 6 5 0 9 9 9 20 0 14 -7
20 -22 20 -18 0 -23 -6 -24 -26z"/>
<path d="M1970 920 c0 -11 7 -20 15 -20 8 0 15 9 15 20 0 11 -7 20 -15 20 -8
0 -15 -9 -15 -20z"/>
<path d="M1920 855 c-7 -8 -16 -15 -21 -15 -5 0 -22 -13 -37 -30 -16 -16 -34
-30 -40 -30 -6 0 -28 -19 -49 -41 -21 -23 -46 -49 -55 -57 -9 -9 -14 -20 -11
-25 4 -6 -1 -8 -11 -4 -10 4 -15 3 -11 -4 4 -5 1 -16 -5 -24 -10 -12 -10 -15
-1 -15 8 0 10 -8 6 -20 -10 -30 41 -27 66 4 23 29 139 97 270 158 53 25 100
51 104 58 5 8 4 11 -3 6 -6 -3 -20 4 -31 16 -12 12 -21 17 -21 10 0 -9 -6 -9
-25 0 -14 6 -25 15 -25 20 0 15 -87 9 -100 -7z"/>
<path d="M2988 335 c-2 -3 -29 -7 -59 -10 -161 -15 -370 -55 -396 -77 -7 -5
-22 -6 -35 -3 -13 4 -19 4 -15 -1 8 -8 -177 -51 -241 -56 -43 -3 -51 -15 -16
-24 57 -14 303 32 620 115 82 22 160 44 174 50 l25 10 -26 0 c-14 1 -28 -1
-31 -4z"/>
<path d="M1645 107 c14 -11 39 -16 80 -15 l60 1 -60 7 c-33 4 -69 11 -80 15
l-20 8 20 -16z"/>
</g>
</svg>
