<?xml version="1.0" standalone="no"?>
<!DOCTYPE svg PUBLIC "-//W3C//DTD SVG 20010904//EN"
 "http://www.w3.org/TR/2001/REC-SVG-20010904/DTD/svg10.dtd">
<svg version="1.0" xmlns="http://www.w3.org/2000/svg"
 width="200.000000pt" height="200.000000pt" viewBox="0 0 200.000000 200.000000"
 preserveAspectRatio="xMidYMid meet">

<g transform="translate(0.000000,200.000000) scale(0.100000,-0.100000)"
fill="#000000" stroke="none">
<path d="M652 1429 c-61 -13 -133 -99 -131 -156 l1 -28 7 31 c21 85 80 133
146 118 21 -5 40 -15 42 -21 3 -7 -4 -9 -16 -6 -29 7 -29 -32 0 -47 46 -25 96
55 55 89 -23 19 -69 28 -104 20z"/>
<path d="M446 1391 c-25 -27 -17 -56 14 -56 18 0 25 5 24 18 -1 9 2 17 7 17
12 0 11 -17 -3 -56 -27 -76 31 -196 116 -236 34 -16 36 -18 11 -13 -75 16
-145 114 -145 203 0 29 -4 41 -11 36 -18 -11 -5 -104 20 -158 15 -30 38 -57
64 -74 37 -24 49 -27 126 -26 57 1 78 -1 64 -7 -33 -12 -28 -23 7 -15 17 3 29
2 26 -3 -3 -5 -20 -11 -38 -15 -23 -5 -29 -9 -21 -17 8 -8 20 -7 44 5 18 9 39
16 48 16 30 0 61 30 61 58 0 20 3 23 9 12 6 -8 7 -18 5 -22 -3 -4 -1 -8 3 -8
5 0 8 -15 8 -32 0 -29 3 -33 25 -33 18 0 26 6 28 23 4 26 -13 29 -27 5 -5 -10
-13 -14 -17 -10 -11 10 9 42 27 43 8 0 94 2 192 2 166 2 177 3 177 21 0 34 38
71 75 71 34 0 75 -36 75 -66 0 -8 6 -14 14 -14 26 0 43 28 42 67 -1 36 -3 38
-41 45 -22 4 -88 7 -146 7 l-105 1 -54 40 c-52 39 -56 40 -134 40 -68 0 -101
-7 -199 -40 -66 -22 -122 -40 -127 -40 -4 0 -11 10 -14 23 l-6 22 -15 -25
c-20 -35 -20 1 0 40 15 30 38 39 50 20 3 -5 -1 -10 -10 -10 -25 0 -14 -34 13
-38 16 -2 25 4 34 23 16 36 -5 55 -66 60 -67 5 -90 -19 -82 -83 13 -93 14
-122 5 -122 -19 0 -79 73 -90 110 -12 39 -9 68 16 147 5 15 1 27 -14 42 -26
26 -43 27 -65 2z m198 -122 c-11 -13 -19 -35 -19 -59 0 -21 -3 -36 -7 -34 -25
15 5 114 34 114 6 0 3 -9 -8 -21z m477 -51 l44 -33 -109 -3 c-60 -1 -110 -1
-112 1 -2 2 -5 14 -6 28 -3 21 2 25 37 30 83 13 101 10 146 -23z m-221 -19 c0
-11 -4 -17 -10 -14 -5 3 -10 13 -10 21 0 8 5 14 10 14 6 0 10 -9 10 -21z m-30
1 c0 -5 -2 -10 -4 -10 -3 0 -8 5 -11 10 -3 6 -1 10 4 10 6 0 11 -4 11 -10z
m-19 -80 c13 -10 19 -19 13 -20 -6 0 -17 7 -24 15 -26 31 -75 15 -96 -32 -10
-22 -13 -24 -13 -9 -1 29 38 66 70 66 15 0 37 -9 50 -20z m139 4 c-34 -7 -110
-9 -110 -2 0 5 28 7 63 7 34 -1 55 -3 47 -5z m-165 -33 c5 -9 -23 -31 -38 -31
-4 0 -3 21 2 38 2 6 31 1 36 -7z m100 -19 c-7 -8 -35 7 -35 18 0 6 7 6 20 -2
10 -7 17 -14 15 -16z m183 1 c-27 -2 -69 -2 -95 0 -27 2 -5 3 47 3 52 0 74 -1
48 -3z m-278 -17 c0 -2 -7 -7 -16 -10 -8 -3 -12 -2 -9 4 6 10 25 14 25 6z"/>
<path d="M342 1384 c-32 -22 -28 -77 6 -82 17 -3 22 2 22 17 0 12 -6 21 -15
21 -19 0 -20 29 -1 36 24 9 55 -14 66 -49 l10 -32 -5 35 c-4 31 -35 70 -54 70
-4 0 -17 -7 -29 -16z"/>
<path d="M581 1345 c-17 -20 -31 -40 -31 -46 0 -6 12 3 26 20 15 18 39 33 60
37 41 8 45 24 5 24 -21 0 -38 -10 -60 -35z"/>
<path d="M360 1353 c22 -9 29 -24 24 -53 -2 -14 4 -43 15 -65 l19 -40 -6 65
c-6 79 -16 100 -45 99 -15 0 -17 -2 -7 -6z"/>
<path d="M591 1316 c-26 -28 -38 -95 -22 -122 10 -17 11 -16 5 7 -9 43 19 95
60 110 43 16 47 29 8 29 -17 0 -38 -10 -51 -24z"/>
<path d="M367 1235 c8 -25 35 -67 59 -93 l45 -47 -34 47 c-19 26 -43 67 -52
92 -23 59 -39 60 -18 1z"/>
<path d="M541 1264 c0 -11 3 -14 6 -6 3 7 2 16 -1 19 -3 4 -6 -2 -5 -13z"/>
<path d="M550 1146 c0 -2 8 -10 18 -17 15 -13 16 -12 3 4 -13 16 -21 21 -21
13z"/>
<path d="M1327 1112 c-25 -28 -21 -69 8 -88 29 -19 60 -11 81 20 37 57 -44
118 -89 68z m63 -28 c11 -12 11 -18 -2 -30 -18 -18 -48 -8 -48 15 0 33 28 42
50 15z"/>
</g>
</svg>
